<svg xmlns="http://www.w3.org/2000/svg" width="20.732" height="22.11" viewBox="0 0 20.732 22.11">
  <g id="codesandbox" transform="translate(-1.634 -0.97)">
    <path id="Path_37932" data-name="Path 37932" d="M21,16V8a2,2,0,0,0-1-1.73l-7-4a2,2,0,0,0-2,0l-7,4A2,2,0,0,0,3,8v8a2,2,0,0,0,1,1.73l7,4a2,2,0,0,0,2,0l7-4A2,2,0,0,0,21,16Z" fill="none" stroke="#172026" stroke-linecap="round" stroke-linejoin="round" stroke-width="2"/>
    <path id="Path_37933" data-name="Path 37933" d="M7.5,4.21,12,6.81l4.5-2.6" fill="none" stroke="#172026" stroke-linecap="round" stroke-linejoin="round" stroke-width="2"/>
    <path id="Path_37934" data-name="Path 37934" d="M7.5,19.79V14.6L3,12" fill="none" stroke="#172026" stroke-linecap="round" stroke-linejoin="round" stroke-width="2"/>
    <path id="Path_37935" data-name="Path 37935" d="M21,12l-4.5,2.6v5.19" fill="none" stroke="#172026" stroke-linecap="round" stroke-linejoin="round" stroke-width="2"/>
    <path id="Path_37936" data-name="Path 37936" d="M3.27,6.96,12,12.01l8.73-5.05" fill="none" stroke="#172026" stroke-linecap="round" stroke-linejoin="round" stroke-width="2"/>
    <line id="Line_415" data-name="Line 415" y1="10.08" transform="translate(12 12)" fill="none" stroke="#172026" stroke-linecap="round" stroke-linejoin="round" stroke-width="2"/>
  </g>
</svg>
