<svg xmlns="http://www.w3.org/2000/svg" width="16" height="23" viewBox="0 0 16 23">
  <g id="figma" transform="translate(-4 -1)">
    <path id="Path_37978" data-name="Path 37978" d="M5,5.5A3.5,3.5,0,0,1,8.5,2H12V9H8.5A3.5,3.5,0,0,1,5,5.5Z" fill="none" stroke="#172026" stroke-linecap="round" stroke-linejoin="round" stroke-width="2"/>
    <path id="Path_37979" data-name="Path 37979" d="M12,2h3.5a3.5,3.5,0,0,1,0,7H12Z" fill="none" stroke="#172026" stroke-linecap="round" stroke-linejoin="round" stroke-width="2"/>
    <path id="Path_37980" data-name="Path 37980" d="M12,12.5A3.5,3.5,0,1,1,15.5,16,3.5,3.5,0,0,1,12,12.5Z" fill="none" stroke="#172026" stroke-linecap="round" stroke-linejoin="round" stroke-width="2"/>
    <path id="Path_37981" data-name="Path 37981" d="M5,19.5A3.5,3.5,0,0,1,8.5,16H12v3.5a3.5,3.5,0,1,1-7,0Z" fill="none" stroke="#172026" stroke-linecap="round" stroke-linejoin="round" stroke-width="2"/>
    <path id="Path_37982" data-name="Path 37982" d="M5,12.5A3.5,3.5,0,0,1,8.5,9H12v7H8.5A3.5,3.5,0,0,1,5,12.5Z" fill="none" stroke="#172026" stroke-linecap="round" stroke-linejoin="round" stroke-width="2"/>
  </g>
</svg>
