<svg xmlns="http://www.w3.org/2000/svg" width="20" height="20" viewBox="0 0 20 20">
  <g id="headphones" transform="translate(-2 -2)">
    <path id="Path_38004" data-name="Path 38004" d="M3,18V12a9,9,0,1,1,18,0v6" fill="none" stroke="#172026" stroke-linecap="round" stroke-linejoin="round" stroke-width="2"/>
    <path id="Path_38005" data-name="Path 38005" d="M21,19a2,2,0,0,1-2,2H18a2,2,0,0,1-2-2V16a2,2,0,0,1,2-2h3ZM3,19a2,2,0,0,0,2,2H6a2,2,0,0,0,2-2V16a2,2,0,0,0-2-2H3Z" fill="none" stroke="#172026" stroke-linecap="round" stroke-linejoin="round" stroke-width="2"/>
  </g>
</svg>
