<svg xmlns="http://www.w3.org/2000/svg" width="20.193" height="22.11" viewBox="0 0 20.193 22.11">
  <g id="package" transform="translate(-1.904 -0.97)">
    <line id="Line_526" data-name="Line 526" x1="9" y1="5.19" transform="translate(7.5 4.21)" fill="none" stroke="#172026" stroke-linecap="round" stroke-linejoin="round" stroke-width="2"/>
    <path id="Path_38044" data-name="Path 38044" d="M21,16V8a2,2,0,0,0-1-1.73l-7-4a2,2,0,0,0-2,0l-7,4A2,2,0,0,0,3,8v8a2,2,0,0,0,1,1.73l7,4a2,2,0,0,0,2,0l7-4A2,2,0,0,0,21,16Z" fill="none" stroke="#172026" stroke-linecap="round" stroke-linejoin="round" stroke-width="2"/>
    <path id="Path_38045" data-name="Path 38045" d="M3.27,6.96,12,12.01l8.73-5.05" fill="none" stroke="#172026" stroke-linecap="round" stroke-linejoin="round" stroke-width="2"/>
    <line id="Line_527" data-name="Line 527" y1="10.08" transform="translate(12 12)" fill="none" stroke="#172026" stroke-linecap="round" stroke-linejoin="round" stroke-width="2"/>
  </g>
</svg>
